<svg width="176" height="176" viewBox="0 0 176 176" fill="none" xmlns="http://www.w3.org/2000/svg">
<g clip-path="url(#clip0_367_112)">
<g filter="url(#filter0_ii_367_112)">
<path d="M88 0C55.4276 0 26.9884 17.6967 11.7728 44H11.7898L49.4723 109.268C45.9851 102.964 44 95.714 44 88C44 63.7082 63.6853 44.0142 87.9738 44C87.9825 44 87.9913 44 88 44H164.227C149.012 17.6967 120.572 0 88 0Z" fill="#D93025"/>
</g>
<g filter="url(#filter1_ii_367_112)">
<path d="M11.7898 132C28.076 160.209 57.6214 175.989 88.0085 176.015L88 176L125.724 110.66C118.027 123.447 104.012 132 88 132C71.4135 132 56.9705 122.822 49.4723 109.268L11.7813 43.9854C-3.39014 70.3141 -4.4964 103.791 11.7898 132Z" fill="#139F5B"/>
</g>
<g filter="url(#filter2_ii_367_112)">
<path d="M164.21 132C180.496 103.791 179.39 70.3141 164.219 43.9853L164.21 44L88 44C112.301 44 132 63.6995 132 88C132 96.2881 129.708 104.041 125.724 110.66L87.9916 176.015C118.379 175.989 147.924 160.209 164.21 132Z" fill="#FBCB43"/>
</g>
<path opacity="0.2" d="M11.7813 43.9854L49.4723 109.268C56.9705 122.822 71.4135 132 88 132L81.5 113.704L11.7813 43.9854Z" fill="url(#paint0_linear_367_112)"/>
<path opacity="0.2" d="M87.9915 176.015L125.683 110.732C133.672 97.4612 134.398 80.3644 126.105 66L113.51 80.7771L87.9915 176.015Z" fill="url(#paint1_linear_367_112)"/>
<path opacity="0.2" d="M164.221 44.011L88.8389 44.011C73.3515 43.7275 58.1818 51.6466 49.8886 66.011L68.9833 69.5298L164.221 44.011Z" fill="url(#paint2_linear_367_112)"/>
<mask id="mask0_367_112" style="mask-type:alpha" maskUnits="userSpaceOnUse" x="-1" y="43" width="127" height="134">
<path d="M11.7898 132C28.076 160.209 57.6214 175.989 88.0085 176.015L88 176L125.724 110.66C118.027 123.447 104.012 132 88 132C71.4135 132 56.9705 122.822 49.4723 109.268L11.7813 43.9854C-3.39014 70.3141 -4.4964 103.791 11.7898 132Z" fill="#1E8E3E"/>
</mask>
<g mask="url(#mask0_367_112)">
<g filter="url(#filter3_dd_367_112)">
<circle cx="88" cy="88" r="44" fill="#E8EAED"/>
</g>
<g filter="url(#filter4_dd_367_112)">
<path d="M164.21 132C180.496 103.791 179.39 70.3141 164.219 43.9854L164.21 44L88 44C112.301 44 132 63.6995 132 88C132 96.2882 129.708 104.041 125.724 110.66L87.9916 176.015C118.379 175.989 147.924 160.209 164.21 132Z" fill="#FBCB43"/>
</g>
</g>
<mask id="mask1_367_112" style="mask-type:alpha" maskUnits="userSpaceOnUse" x="87" y="43" width="90" height="134">
<path d="M164.21 132C180.496 103.791 179.39 70.3141 164.219 43.9853L164.21 44L88 44C112.301 44 132 63.6995 132 88C132 96.2881 129.708 104.041 125.724 110.66L87.9916 176.015C118.379 175.989 147.924 160.209 164.21 132Z" fill="#FBCB43"/>
</mask>
<g mask="url(#mask1_367_112)">
<g filter="url(#filter5_dd_367_112)">
<circle cx="88" cy="88" r="44" fill="#E8EAED"/>
</g>
<g filter="url(#filter6_dd_367_112)">
<path d="M88 0C55.4276 0 26.9884 17.6967 11.7728 44H11.7898L49.4723 109.268C45.9851 102.964 44 95.714 44 88C44 63.7082 63.6853 44.0142 87.9738 44C87.9825 44 87.9913 44 88 44H164.227C149.012 17.6967 120.572 0 88 0Z" fill="#D93025"/>
</g>
</g>
<mask id="mask2_367_112" style="mask-type:alpha" maskUnits="userSpaceOnUse" x="11" y="0" width="154" height="110">
<path d="M88 0C55.4276 0 26.9884 17.6967 11.7728 44H11.7898L49.4723 109.268C45.9851 102.964 44 95.714 44 88C44 63.7082 63.6853 44.0142 87.9738 44C87.9825 44 87.9913 44 88 44H164.227C149.012 17.6967 120.572 0 88 0Z" fill="#D93025"/>
</mask>
<g mask="url(#mask2_367_112)">
<g filter="url(#filter7_dd_367_112)">
<circle cx="88" cy="88" r="44" fill="#E8EAED"/>
</g>
<g filter="url(#filter8_dd_367_112)">
<path d="M11.7898 132C28.076 160.209 57.6214 175.989 88.0085 176.015L88 176L125.724 110.66C118.027 123.447 104.012 132 88 132C71.4135 132 56.9705 122.822 49.4723 109.268L11.7813 43.9854C-3.39014 70.3141 -4.4964 103.791 11.7898 132Z" fill="#1E8E3E"/>
</g>
</g>
<g filter="url(#filter9_i_367_112)">
<circle cx="88" cy="88" r="44" fill="#E8EAED"/>
</g>
<circle cx="88" cy="88" r="32" fill="#1A73E8"/>
<circle opacity="0.15" cx="88" cy="88" r="88" fill="url(#paint3_linear_367_112)"/>
</g>
<defs>
<filter id="filter0_ii_367_112" x="11.7728" y="0" width="152.454" height="109.268" filterUnits="userSpaceOnUse" color-interpolation-filters="sRGB">
<feFlood flood-opacity="0" result="BackgroundImageFix"/>
<feBlend mode="normal" in="SourceGraphic" in2="BackgroundImageFix" result="shape"/>
<feColorMatrix in="SourceAlpha" type="matrix" values="0 0 0 0 0 0 0 0 0 0 0 0 0 0 0 0 0 0 127 0" result="hardAlpha"/>
<feOffset dy="1"/>
<feComposite in2="hardAlpha" operator="arithmetic" k2="-1" k3="1"/>
<feColorMatrix type="matrix" values="0 0 0 0 1 0 0 0 0 1 0 0 0 0 1 0 0 0 0.2 0"/>
<feBlend mode="normal" in2="shape" result="effect1_innerShadow_367_112"/>
<feColorMatrix in="SourceAlpha" type="matrix" values="0 0 0 0 0 0 0 0 0 0 0 0 0 0 0 0 0 0 127 0" result="hardAlpha"/>
<feOffset dy="-1"/>
<feComposite in2="hardAlpha" operator="arithmetic" k2="-1" k3="1"/>
<feColorMatrix type="matrix" values="0 0 0 0 0.243137 0 0 0 0 0.152941 0 0 0 0 0.137255 0 0 0 0.2 0"/>
<feBlend mode="normal" in2="effect1_innerShadow_367_112" result="effect2_innerShadow_367_112"/>
</filter>
<filter id="filter1_ii_367_112" x="-0.0146484" y="43.9854" width="125.739" height="132.029" filterUnits="userSpaceOnUse" color-interpolation-filters="sRGB">
<feFlood flood-opacity="0" result="BackgroundImageFix"/>
<feBlend mode="normal" in="SourceGraphic" in2="BackgroundImageFix" result="shape"/>
<feColorMatrix in="SourceAlpha" type="matrix" values="0 0 0 0 0 0 0 0 0 0 0 0 0 0 0 0 0 0 127 0" result="hardAlpha"/>
<feOffset dy="1"/>
<feComposite in2="hardAlpha" operator="arithmetic" k2="-1" k3="1"/>
<feColorMatrix type="matrix" values="0 0 0 0 1 0 0 0 0 1 0 0 0 0 1 0 0 0 0.2 0"/>
<feBlend mode="normal" in2="shape" result="effect1_innerShadow_367_112"/>
<feColorMatrix in="SourceAlpha" type="matrix" values="0 0 0 0 0 0 0 0 0 0 0 0 0 0 0 0 0 0 127 0" result="hardAlpha"/>
<feOffset dy="-1"/>
<feComposite in2="hardAlpha" operator="arithmetic" k2="-1" k3="1"/>
<feColorMatrix type="matrix" values="0 0 0 0 0.14902 0 0 0 0 0.196078 0 0 0 0 0.219608 0 0 0 0.2 0"/>
<feBlend mode="normal" in2="effect1_innerShadow_367_112" result="effect2_innerShadow_367_112"/>
</filter>
<filter id="filter2_ii_367_112" x="87.9916" y="43.9853" width="88.0232" height="132.029" filterUnits="userSpaceOnUse" color-interpolation-filters="sRGB">
<feFlood flood-opacity="0" result="BackgroundImageFix"/>
<feBlend mode="normal" in="SourceGraphic" in2="BackgroundImageFix" result="shape"/>
<feColorMatrix in="SourceAlpha" type="matrix" values="0 0 0 0 0 0 0 0 0 0 0 0 0 0 0 0 0 0 127 0" result="hardAlpha"/>
<feOffset dy="1"/>
<feComposite in2="hardAlpha" operator="arithmetic" k2="-1" k3="1"/>
<feColorMatrix type="matrix" values="0 0 0 0 1 0 0 0 0 1 0 0 0 0 1 0 0 0 0.4 0"/>
<feBlend mode="normal" in2="shape" result="effect1_innerShadow_367_112"/>
<feColorMatrix in="SourceAlpha" type="matrix" values="0 0 0 0 0 0 0 0 0 0 0 0 0 0 0 0 0 0 127 0" result="hardAlpha"/>
<feOffset dy="-1"/>
<feComposite in2="hardAlpha" operator="arithmetic" k2="-1" k3="1"/>
<feColorMatrix type="matrix" values="0 0 0 0 0.866667 0 0 0 0 0.172549 0 0 0 0 0 0 0 0 0.2 0"/>
<feBlend mode="normal" in2="effect1_innerShadow_367_112" result="effect2_innerShadow_367_112"/>
</filter>
<filter id="filter3_dd_367_112" x="44" y="44" width="96" height="96" filterUnits="userSpaceOnUse" color-interpolation-filters="sRGB">
<feFlood flood-opacity="0" result="BackgroundImageFix"/>
<feColorMatrix in="SourceAlpha" type="matrix" values="0 0 0 0 0 0 0 0 0 0 0 0 0 0 0 0 0 0 127 0" result="hardAlpha"/>
<feOffset dx="4" dy="4"/>
<feGaussianBlur stdDeviation="2"/>
<feColorMatrix type="matrix" values="0 0 0 0 0.14902 0 0 0 0 0.196078 0 0 0 0 0.219608 0 0 0 0.2 0"/>
<feBlend mode="normal" in2="BackgroundImageFix" result="effect1_dropShadow_367_112"/>
<feColorMatrix in="SourceAlpha" type="matrix" values="0 0 0 0 0 0 0 0 0 0 0 0 0 0 0 0 0 0 127 0" result="hardAlpha"/>
<feOffset dy="1"/>
<feColorMatrix type="matrix" values="0 0 0 0 0.14902 0 0 0 0 0.196078 0 0 0 0 0.219608 0 0 0 0.4 0"/>
<feBlend mode="normal" in2="effect1_dropShadow_367_112" result="effect2_dropShadow_367_112"/>
<feBlend mode="normal" in="SourceGraphic" in2="effect2_dropShadow_367_112" result="shape"/>
</filter>
<filter id="filter4_dd_367_112" x="87.9916" y="43.9854" width="96.0232" height="140.029" filterUnits="userSpaceOnUse" color-interpolation-filters="sRGB">
<feFlood flood-opacity="0" result="BackgroundImageFix"/>
<feColorMatrix in="SourceAlpha" type="matrix" values="0 0 0 0 0 0 0 0 0 0 0 0 0 0 0 0 0 0 127 0" result="hardAlpha"/>
<feOffset dx="4" dy="4"/>
<feGaussianBlur stdDeviation="2"/>
<feColorMatrix type="matrix" values="0 0 0 0 0.14902 0 0 0 0 0.196078 0 0 0 0 0.219608 0 0 0 0.2 0"/>
<feBlend mode="normal" in2="BackgroundImageFix" result="effect1_dropShadow_367_112"/>
<feColorMatrix in="SourceAlpha" type="matrix" values="0 0 0 0 0 0 0 0 0 0 0 0 0 0 0 0 0 0 127 0" result="hardAlpha"/>
<feOffset dy="1"/>
<feColorMatrix type="matrix" values="0 0 0 0 0.14902 0 0 0 0 0.196078 0 0 0 0 0.219608 0 0 0 0.2 0"/>
<feBlend mode="normal" in2="effect1_dropShadow_367_112" result="effect2_dropShadow_367_112"/>
<feBlend mode="normal" in="SourceGraphic" in2="effect2_dropShadow_367_112" result="shape"/>
</filter>
<filter id="filter5_dd_367_112" x="44" y="44" width="96" height="96" filterUnits="userSpaceOnUse" color-interpolation-filters="sRGB">
<feFlood flood-opacity="0" result="BackgroundImageFix"/>
<feColorMatrix in="SourceAlpha" type="matrix" values="0 0 0 0 0 0 0 0 0 0 0 0 0 0 0 0 0 0 127 0" result="hardAlpha"/>
<feOffset dx="4" dy="4"/>
<feGaussianBlur stdDeviation="2"/>
<feColorMatrix type="matrix" values="0 0 0 0 0.74902 0 0 0 0 0.211765 0 0 0 0 0.0470588 0 0 0 0.2 0"/>
<feBlend mode="normal" in2="BackgroundImageFix" result="effect1_dropShadow_367_112"/>
<feColorMatrix in="SourceAlpha" type="matrix" values="0 0 0 0 0 0 0 0 0 0 0 0 0 0 0 0 0 0 127 0" result="hardAlpha"/>
<feOffset dy="1"/>
<feColorMatrix type="matrix" values="0 0 0 0 0.74902 0 0 0 0 0.211765 0 0 0 0 0.0470588 0 0 0 0.2 0"/>
<feBlend mode="normal" in2="effect1_dropShadow_367_112" result="effect2_dropShadow_367_112"/>
<feBlend mode="normal" in="SourceGraphic" in2="effect2_dropShadow_367_112" result="shape"/>
</filter>
<filter id="filter6_dd_367_112" x="11.7728" y="0" width="160.454" height="117.268" filterUnits="userSpaceOnUse" color-interpolation-filters="sRGB">
<feFlood flood-opacity="0" result="BackgroundImageFix"/>
<feColorMatrix in="SourceAlpha" type="matrix" values="0 0 0 0 0 0 0 0 0 0 0 0 0 0 0 0 0 0 127 0" result="hardAlpha"/>
<feOffset dx="4" dy="4"/>
<feGaussianBlur stdDeviation="2"/>
<feColorMatrix type="matrix" values="0 0 0 0 0.74902 0 0 0 0 0.211765 0 0 0 0 0.0470588 0 0 0 0.2 0"/>
<feBlend mode="normal" in2="BackgroundImageFix" result="effect1_dropShadow_367_112"/>
<feColorMatrix in="SourceAlpha" type="matrix" values="0 0 0 0 0 0 0 0 0 0 0 0 0 0 0 0 0 0 127 0" result="hardAlpha"/>
<feOffset dy="1"/>
<feColorMatrix type="matrix" values="0 0 0 0 0.74902 0 0 0 0 0.211765 0 0 0 0 0.0470588 0 0 0 0.6 0"/>
<feBlend mode="normal" in2="effect1_dropShadow_367_112" result="effect2_dropShadow_367_112"/>
<feBlend mode="normal" in="SourceGraphic" in2="effect2_dropShadow_367_112" result="shape"/>
</filter>
<filter id="filter7_dd_367_112" x="44" y="44" width="96" height="96" filterUnits="userSpaceOnUse" color-interpolation-filters="sRGB">
<feFlood flood-opacity="0" result="BackgroundImageFix"/>
<feColorMatrix in="SourceAlpha" type="matrix" values="0 0 0 0 0 0 0 0 0 0 0 0 0 0 0 0 0 0 127 0" result="hardAlpha"/>
<feOffset dx="4" dy="4"/>
<feGaussianBlur stdDeviation="2"/>
<feColorMatrix type="matrix" values="0 0 0 0 0.243137 0 0 0 0 0.152941 0 0 0 0 0.137255 0 0 0 0.2 0"/>
<feBlend mode="normal" in2="BackgroundImageFix" result="effect1_dropShadow_367_112"/>
<feColorMatrix in="SourceAlpha" type="matrix" values="0 0 0 0 0 0 0 0 0 0 0 0 0 0 0 0 0 0 127 0" result="hardAlpha"/>
<feOffset dy="1"/>
<feColorMatrix type="matrix" values="0 0 0 0 0.243137 0 0 0 0 0.152941 0 0 0 0 0.137255 0 0 0 0.2 0"/>
<feBlend mode="normal" in2="effect1_dropShadow_367_112" result="effect2_dropShadow_367_112"/>
<feBlend mode="normal" in="SourceGraphic" in2="effect2_dropShadow_367_112" result="shape"/>
</filter>
<filter id="filter8_dd_367_112" x="-0.0146484" y="43.9854" width="133.739" height="140.029" filterUnits="userSpaceOnUse" color-interpolation-filters="sRGB">
<feFlood flood-opacity="0" result="BackgroundImageFix"/>
<feColorMatrix in="SourceAlpha" type="matrix" values="0 0 0 0 0 0 0 0 0 0 0 0 0 0 0 0 0 0 127 0" result="hardAlpha"/>
<feOffset dx="4" dy="4"/>
<feGaussianBlur stdDeviation="2"/>
<feColorMatrix type="matrix" values="0 0 0 0 0.243137 0 0 0 0 0.152941 0 0 0 0 0.137255 0 0 0 0.2 0"/>
<feBlend mode="normal" in2="BackgroundImageFix" result="effect1_dropShadow_367_112"/>
<feColorMatrix in="SourceAlpha" type="matrix" values="0 0 0 0 0 0 0 0 0 0 0 0 0 0 0 0 0 0 127 0" result="hardAlpha"/>
<feOffset dy="1"/>
<feColorMatrix type="matrix" values="0 0 0 0 0.243137 0 0 0 0 0.152941 0 0 0 0 0.137255 0 0 0 0.2 0"/>
<feBlend mode="normal" in2="effect1_dropShadow_367_112" result="effect2_dropShadow_367_112"/>
<feBlend mode="normal" in="SourceGraphic" in2="effect2_dropShadow_367_112" result="shape"/>
</filter>
<filter id="filter9_i_367_112" x="44" y="44" width="88" height="88" filterUnits="userSpaceOnUse" color-interpolation-filters="sRGB">
<feFlood flood-opacity="0" result="BackgroundImageFix"/>
<feBlend mode="normal" in="SourceGraphic" in2="BackgroundImageFix" result="shape"/>
<feColorMatrix in="SourceAlpha" type="matrix" values="0 0 0 0 0 0 0 0 0 0 0 0 0 0 0 0 0 0 127 0" result="hardAlpha"/>
<feOffset dy="1"/>
<feComposite in2="hardAlpha" operator="arithmetic" k2="-1" k3="1"/>
<feColorMatrix type="matrix" values="0 0 0 0 1 0 0 0 0 1 0 0 0 0 1 0 0 0 0.4 0"/>
<feBlend mode="normal" in2="shape" result="effect1_innerShadow_367_112"/>
</filter>
<linearGradient id="paint0_linear_367_112" x1="11.7813" y1="43.9854" x2="98.8925" y2="119.422" gradientUnits="userSpaceOnUse">
<stop stop-color="#3E2723"/>
<stop offset="1" stop-color="#3E2323" stop-opacity="0"/>
</linearGradient>
<linearGradient id="paint1_linear_367_112" x1="87.9915" y1="176.015" x2="109.766" y2="62.8559" gradientUnits="userSpaceOnUse">
<stop stop-color="#263238"/>
<stop offset="1" stop-color="#263238" stop-opacity="0"/>
</linearGradient>
<linearGradient id="paint2_linear_367_112" x1="164.221" y1="44.011" x2="55.3354" y2="81.7334" gradientUnits="userSpaceOnUse">
<stop stop-color="#BF360C"/>
<stop offset="1" stop-color="#BF360C" stop-opacity="0"/>
</linearGradient>
<linearGradient id="paint3_linear_367_112" x1="27.2105" y1="24.3711" x2="148.789" y2="151.629" gradientUnits="userSpaceOnUse">
<stop stop-color="white"/>
<stop offset="1" stop-color="white" stop-opacity="0"/>
</linearGradient>
<clipPath id="clip0_367_112">
<rect width="176" height="176" fill="white"/>
</clipPath>
</defs>
</svg>
