<svg width="176" height="176" viewBox="0 0 176 176" fill="none" xmlns="http://www.w3.org/2000/svg">
<g clip-path="url(#clip0_63_67)">
<g filter="url(#filter0_ii_63_67)">
<path d="M0 36C0 29.3726 5.37258 24 12 24H116V152H12C5.37258 152 0 146.627 0 140V36Z" fill="#1A73E8"/>
</g>
<g filter="url(#filter1_ii_63_67)">
<path d="M116 24H164C170.627 24 176 29.3726 176 36V140C176 146.627 170.627 152 164 152H116V24Z" fill="#F1F3F4"/>
</g>
<rect x="125" y="100" width="27" height="6" fill="#BDC1C6"/>
<rect x="125" y="90" width="42" height="6" fill="#BDC1C6"/>
<rect x="125" y="80" width="42" height="6" fill="#BDC1C6"/>
<rect x="125" y="70" width="42" height="6" fill="#BDC1C6"/>
<g filter="url(#filter2_dd_63_67)">
<g filter="url(#filter3_i_63_67)">
<path d="M34.2105 102.105C42.4912 98.7368 50.4211 97.0526 58 97.0526C65.5789 97.0526 73.4386 98.7368 81.5789 102.105C89.8596 105.333 94 109.614 94 114.947V124H22V114.947C22 109.614 26.0702 105.333 34.2105 102.105ZM70.6316 82.7368C67.1228 86.2456 62.9123 88 58 88C53.0877 88 48.8772 86.2456 45.3684 82.7368C41.8596 79.2281 40.1053 75.0175 40.1053 70.1053C40.1053 65.193 41.8596 60.9825 45.3684 57.4737C48.8772 53.8246 53.0877 52 58 52C62.9123 52 67.1228 53.8246 70.6316 57.4737C74.1404 60.9825 75.8947 65.193 75.8947 70.1053C75.8947 75.0175 74.1404 79.2281 70.6316 82.7368Z" fill="#E8EAED"/>
</g>
</g>
<rect opacity="0.2" y="24" width="176" height="128" rx="12" fill="url(#paint0_linear_63_67)"/>
</g>
<defs>
<filter id="filter0_ii_63_67" x="0" y="24" width="116" height="128" filterUnits="userSpaceOnUse" color-interpolation-filters="sRGB">
<feFlood flood-opacity="0" result="BackgroundImageFix"/>
<feBlend mode="normal" in="SourceGraphic" in2="BackgroundImageFix" result="shape"/>
<feColorMatrix in="SourceAlpha" type="matrix" values="0 0 0 0 0 0 0 0 0 0 0 0 0 0 0 0 0 0 127 0" result="hardAlpha"/>
<feOffset dy="1"/>
<feComposite in2="hardAlpha" operator="arithmetic" k2="-1" k3="1"/>
<feColorMatrix type="matrix" values="0 0 0 0 1 0 0 0 0 1 0 0 0 0 1 0 0 0 0.2 0"/>
<feBlend mode="normal" in2="shape" result="effect1_innerShadow_63_67"/>
<feColorMatrix in="SourceAlpha" type="matrix" values="0 0 0 0 0 0 0 0 0 0 0 0 0 0 0 0 0 0 127 0" result="hardAlpha"/>
<feOffset dy="-1"/>
<feComposite in2="hardAlpha" operator="arithmetic" k2="-1" k3="1"/>
<feColorMatrix type="matrix" values="0 0 0 0 0.101961 0 0 0 0 0.137255 0 0 0 0 0.494118 0 0 0 0.2 0"/>
<feBlend mode="normal" in2="effect1_innerShadow_63_67" result="effect2_innerShadow_63_67"/>
</filter>
<filter id="filter1_ii_63_67" x="116" y="24" width="60" height="128" filterUnits="userSpaceOnUse" color-interpolation-filters="sRGB">
<feFlood flood-opacity="0" result="BackgroundImageFix"/>
<feBlend mode="normal" in="SourceGraphic" in2="BackgroundImageFix" result="shape"/>
<feColorMatrix in="SourceAlpha" type="matrix" values="0 0 0 0 0 0 0 0 0 0 0 0 0 0 0 0 0 0 127 0" result="hardAlpha"/>
<feOffset dy="1"/>
<feComposite in2="hardAlpha" operator="arithmetic" k2="-1" k3="1"/>
<feColorMatrix type="matrix" values="0 0 0 0 1 0 0 0 0 1 0 0 0 0 1 0 0 0 0.3 0"/>
<feBlend mode="normal" in2="shape" result="effect1_innerShadow_63_67"/>
<feColorMatrix in="SourceAlpha" type="matrix" values="0 0 0 0 0 0 0 0 0 0 0 0 0 0 0 0 0 0 127 0" result="hardAlpha"/>
<feOffset dy="-1"/>
<feComposite in2="hardAlpha" operator="arithmetic" k2="-1" k3="1"/>
<feColorMatrix type="matrix" values="0 0 0 0 0.129412 0 0 0 0 0.129412 0 0 0 0 0.129412 0 0 0 0.15 0"/>
<feBlend mode="normal" in2="effect1_innerShadow_63_67" result="effect2_innerShadow_63_67"/>
</filter>
<filter id="filter2_dd_63_67" x="-8" y="-8" width="200" height="200" filterUnits="userSpaceOnUse" color-interpolation-filters="sRGB">
<feFlood flood-opacity="0" result="BackgroundImageFix"/>
<feColorMatrix in="SourceAlpha" type="matrix" values="0 0 0 0 0 0 0 0 0 0 0 0 0 0 0 0 0 0 127 0" result="hardAlpha"/>
<feOffset dx="4" dy="4"/>
<feGaussianBlur stdDeviation="2"/>
<feColorMatrix type="matrix" values="0 0 0 0 0.101961 0 0 0 0 0.137255 0 0 0 0 0.494118 0 0 0 0.2 0"/>
<feBlend mode="normal" in2="BackgroundImageFix" result="effect1_dropShadow_63_67"/>
<feColorMatrix in="SourceAlpha" type="matrix" values="0 0 0 0 0 0 0 0 0 0 0 0 0 0 0 0 0 0 127 0" result="hardAlpha"/>
<feOffset dy="1"/>
<feColorMatrix type="matrix" values="0 0 0 0 0.101961 0 0 0 0 0.137255 0 0 0 0 0.494118 0 0 0 0.2 0"/>
<feBlend mode="normal" in2="effect1_dropShadow_63_67" result="effect2_dropShadow_63_67"/>
<feBlend mode="normal" in="SourceGraphic" in2="effect2_dropShadow_63_67" result="shape"/>
</filter>
<filter id="filter3_i_63_67" x="22" y="52" width="72" height="72" filterUnits="userSpaceOnUse" color-interpolation-filters="sRGB">
<feFlood flood-opacity="0" result="BackgroundImageFix"/>
<feBlend mode="normal" in="SourceGraphic" in2="BackgroundImageFix" result="shape"/>
<feColorMatrix in="SourceAlpha" type="matrix" values="0 0 0 0 0 0 0 0 0 0 0 0 0 0 0 0 0 0 127 0" result="hardAlpha"/>
<feOffset dy="1"/>
<feComposite in2="hardAlpha" operator="arithmetic" k2="-1" k3="1"/>
<feColorMatrix type="matrix" values="0 0 0 0 1 0 0 0 0 1 0 0 0 0 1 0 0 0 0.4 0"/>
<feBlend mode="normal" in2="shape" result="effect1_innerShadow_63_67"/>
</filter>
<linearGradient id="paint0_linear_63_67" x1="27.2105" y1="41.7244" x2="110.164" y2="161.113" gradientUnits="userSpaceOnUse">
<stop stop-color="white"/>
<stop offset="1" stop-color="white" stop-opacity="0"/>
</linearGradient>
<clipPath id="clip0_63_67">
<rect width="176" height="176" fill="white"/>
</clipPath>
</defs>
</svg>
