<svg width="172" height="172" viewBox="0 0 172 172" fill="none" xmlns="http://www.w3.org/2000/svg">
<g clip-path="url(#clip0_144_2)">
<g filter="url(#filter0_ii_144_2)">
<path d="M129.47 163.2L109.77 171.3C105.87 172.9 101.37 171.3 99.3697 167.6L92.3697 156.4C88.0697 156.8 83.7697 156.8 79.4697 156.4L72.3697 167.8C71.5697 169.3 70.1697 170.6 68.3697 171.3C66.3697 172.1 64.0696 172.1 62.0696 171.3L42.3696 163.2C38.4696 161.6 36.3696 157.3 37.6696 153.2L40.6696 140.3C37.3696 137.5 34.2696 134.5 31.5696 131.2L18.4696 134.2C14.5696 135.4 10.2696 133.4 8.66965 129.4L0.569647 109.7C-1.03035 105.8 0.569648 101.3 4.26965 99.3L15.4696 92.3C15.0696 88 15.0696 83.7 15.4696 79.4L4.16965 72.5C0.569647 70.6 -1.03035 66.1 0.569647 62.2L8.66965 42.5C10.2696 38.7 14.7696 36.6 18.6696 37.8L31.5696 40.8C34.2696 37.5 37.3696 34.5 40.6696 31.7L37.6696 18.6C36.4696 14.7 38.5696 10.4 42.4696 8.8L62.1696 0.699998C66.0696 -0.900002 70.5696 0.699998 72.5696 4.4L79.5696 15.6C83.8696 15.2 88.1697 15.2 92.4697 15.6L99.5696 4.2C100.37 2.7 101.77 1.4 103.57 0.699998C105.57 -0.100002 107.87 -0.100002 109.87 0.699998L129.57 8.8C133.47 10.4 135.57 14.7 134.27 18.8L131.27 31.7C134.57 34.4 137.57 37.5 140.37 40.8L153.47 37.8C157.37 36.6 161.67 38.7 163.27 42.6L171.37 62.3C172.97 66.2 171.37 70.7 167.67 72.7L156.47 79.7C156.87 84 156.87 88.3 156.47 92.6L167.87 99.7C171.47 101.6 173.07 106.1 171.37 110L163.27 129.6C161.67 133.4 157.17 135.5 153.27 134.3L140.37 131.3C137.67 134.6 134.57 137.7 131.27 140.4L134.27 153.5C135.47 157.3 133.37 161.6 129.47 163.2ZM127.97 86C127.97 62.8 109.17 44 85.9697 44C62.7696 44 43.9696 62.8 43.9696 86C43.9696 109.2 62.7696 128 85.9697 128C109.17 128 127.97 109.2 127.97 86Z" fill="#E0E0E0"/>
<path d="M85.9697 140C56.1697 140 31.9697 115.8 31.9697 86C31.9697 56.2 56.1697 32 85.9697 32C115.77 32 139.97 56.2 139.97 86C139.97 115.8 115.77 140 85.9697 140ZM127.97 86C127.97 62.8 109.17 44 85.9697 44C62.7696 44 43.9697 62.8 43.9697 86C43.9697 109.2 62.7696 128 85.9697 128C109.17 128 127.97 109.2 127.97 86Z" fill="black" fill-opacity="0.1"/>
</g>
<mask id="mask0_144_2" style="mask-type:alpha" maskUnits="userSpaceOnUse" x="-1" y="0" width="174" height="172">
<path d="M129.47 163.2L109.77 171.3C105.87 172.9 101.37 171.3 99.3696 167.6L92.3696 156.4C88.0696 156.8 83.7696 156.8 79.4696 156.4L72.3696 167.8C71.5696 169.3 70.1696 170.6 68.3696 171.3C66.3696 172.1 64.0696 172.1 62.0696 171.3L42.3696 163.2C38.4696 161.6 36.3696 157.3 37.6696 153.2L40.6696 140.3C37.3696 137.5 34.2696 134.5 31.5696 131.2L18.4696 134.2C14.5696 135.4 10.2696 133.4 8.66964 129.4L0.56964 109.7C-1.03036 105.8 0.56964 101.3 4.26964 99.3L15.4696 92.3C15.0696 88 15.0696 83.7 15.4696 79.4L4.16964 72.5C0.56964 70.6 -1.03036 66.1 0.56964 62.2L8.66964 42.5C10.2696 38.7 14.7696 36.6 18.6696 37.8L31.5696 40.8C34.2696 37.5 37.3696 34.5 40.6696 31.7L37.6696 18.6C36.4696 14.7 38.5696 10.4 42.4696 8.8L62.1696 0.699998C66.0696 -0.900002 70.5696 0.699998 72.5696 4.4L79.5696 15.6C83.8696 15.2 88.1696 15.2 92.4696 15.6L99.5696 4.2C100.37 2.7 101.77 1.4 103.57 0.699998C105.57 -0.100002 107.87 -0.100002 109.87 0.699998L129.57 8.8C133.47 10.4 135.57 14.7 134.27 18.8L131.27 31.7C134.57 34.4 137.57 37.5 140.37 40.8L153.47 37.8C157.37 36.6 161.67 38.7 163.27 42.6L171.37 62.3C172.97 66.2 171.37 70.7 167.67 72.7L156.47 79.7C156.87 84 156.87 88.3 156.47 92.6L167.87 99.7C171.47 101.6 173.07 106.1 171.37 110L163.27 129.6C161.67 133.4 157.17 135.5 153.27 134.3L140.37 131.3C137.67 134.6 134.57 137.7 131.27 140.4L134.27 153.5C135.47 157.3 133.37 161.6 129.47 163.2ZM127.97 86C127.97 62.8 109.17 44 85.9696 44C62.7696 44 43.9696 62.8 43.9696 86C43.9696 109.2 62.7696 128 85.9696 128C109.17 128 127.97 109.2 127.97 86Z" fill="#E0E0E0"/>
</mask>
<g mask="url(#mask0_144_2)">
<g filter="url(#filter1_d_144_2)">
<path d="M128.97 99.4L20.5696 153.6L66.3696 89.3L42.9696 72.6L128.97 99.4Z" fill="#FFA000"/>
<path d="M151.47 18.5L105.57 82.7L128.97 99.4L42.9696 72.6L151.47 18.5Z" fill="#FFC107"/>
</g>
</g>
<g filter="url(#filter2_ii_144_2)">
<path d="M128.97 99.4L20.5696 153.6L66.3696 89.3L42.9696 72.6L128.97 99.4Z" fill="#FFA000"/>
<path d="M151.47 18.5L105.57 82.7L128.97 99.4L42.9696 72.6L151.47 18.5Z" fill="#FFC107"/>
</g>
<path opacity="0.1" fill-rule="evenodd" clip-rule="evenodd" d="M109.77 171.3L129.47 163.2C133.37 161.6 135.47 157.3 134.27 153.5L131.27 140.4C134.57 137.7 137.67 134.6 140.37 131.3L153.27 134.3C157.17 135.5 161.67 133.4 163.27 129.6L171.37 110C173.07 106.1 171.47 101.6 167.87 99.7L156.47 92.6C156.87 88.3 156.87 84 156.47 79.7L167.67 72.7C171.37 70.7 172.97 66.2 171.37 62.3L163.27 42.6C161.67 38.7 157.37 36.6 153.47 37.8L140.37 40.8C139.496 39.7706 138.603 38.7607 137.688 37.7763L151.47 18.5L132.092 28.1618L134.27 18.8C135.57 14.7 133.47 10.4 129.57 8.8L109.87 0.699997C107.87 -0.100006 105.57 -0.100006 103.57 0.699997C101.77 1.39999 100.37 2.7 99.5697 4.2L92.4697 15.6C88.1697 15.2 83.8697 15.2 79.5697 15.6L72.5697 4.4C70.5697 0.699997 66.0697 -0.900002 62.1697 0.699997L42.4697 8.8C38.5696 10.4 36.4697 14.7 37.6697 18.6L40.6697 31.7C37.3697 34.5 34.2697 37.5 31.5697 40.8L18.6697 37.8C14.7697 36.6 10.2697 38.7 8.66965 42.5L0.569654 62.2C-1.03034 66.1 0.569654 70.6 4.16965 72.5L15.4697 79.4C15.0697 83.7 15.0697 88 15.4697 92.3L4.26965 99.3C0.569654 101.3 -1.03034 105.8 0.569654 109.7L8.66965 129.4C10.2697 133.4 14.5697 135.4 18.4696 134.2L31.5697 131.2C32.443 132.267 33.3582 133.304 34.3085 134.312L20.5697 153.6L39.8144 143.978L37.6697 153.2C36.3697 157.3 38.4697 161.6 42.3697 163.2L62.0696 171.3C64.0696 172.1 66.3697 172.1 68.3697 171.3C70.1697 170.6 71.5697 169.3 72.3697 167.8L79.4697 156.4C83.7697 156.8 88.0697 156.8 92.3697 156.4L99.3697 167.6C101.37 171.3 105.87 172.9 109.77 171.3ZM74.7815 126.494C78.3435 127.476 82.0952 128 85.9697 128C103.754 128 118.952 116.953 125.079 101.345L74.7815 126.494ZM51.5598 110.092L66.3697 89.3L45.5745 74.459C44.5292 78.1257 43.9697 81.9974 43.9697 86C43.9697 94.9645 46.7766 103.272 51.5598 110.092ZM46.8574 70.6615L97.2544 45.5327C93.6637 44.5339 89.8792 44 85.9697 44C68.183 44 52.9826 55.0502 46.8574 70.6615ZM126.365 97.541L105.57 82.7L120.407 61.9472C125.173 68.7597 127.97 77.0526 127.97 86C127.97 90.0026 127.41 93.8743 126.365 97.541Z" fill="url(#paint0_radial_144_2)"/>
</g>
<defs>
<filter id="filter0_ii_144_2" x="-10" y="-10" width="192" height="192" filterUnits="userSpaceOnUse" color-interpolation-filters="sRGB">
<feFlood flood-opacity="0" result="BackgroundImageFix"/>
<feBlend mode="normal" in="SourceGraphic" in2="BackgroundImageFix" result="shape"/>
<feColorMatrix in="SourceAlpha" type="matrix" values="0 0 0 0 0 0 0 0 0 0 0 0 0 0 0 0 0 0 127 0" result="hardAlpha"/>
<feOffset dy="-1"/>
<feComposite in2="hardAlpha" operator="arithmetic" k2="-1" k3="1"/>
<feColorMatrix type="matrix" values="0 0 0 0 0.129412 0 0 0 0 0.129412 0 0 0 0 0.129412 0 0 0 0.1 0"/>
<feBlend mode="normal" in2="shape" result="effect1_innerShadow_144_2"/>
<feColorMatrix in="SourceAlpha" type="matrix" values="0 0 0 0 0 0 0 0 0 0 0 0 0 0 0 0 0 0 127 0" result="hardAlpha"/>
<feOffset dy="1"/>
<feComposite in2="hardAlpha" operator="arithmetic" k2="-1" k3="1"/>
<feColorMatrix type="matrix" values="0 0 0 0 1 0 0 0 0 1 0 0 0 0 1 0 0 0 0.2 0"/>
<feBlend mode="normal" in2="effect1_innerShadow_144_2" result="effect2_innerShadow_144_2"/>
</filter>
<filter id="filter1_d_144_2" x="-14" y="-10" width="200" height="200" filterUnits="userSpaceOnUse" color-interpolation-filters="sRGB">
<feFlood flood-opacity="0" result="BackgroundImageFix"/>
<feColorMatrix in="SourceAlpha" type="matrix" values="0 0 0 0 0 0 0 0 0 0 0 0 0 0 0 0 0 0 127 0" result="hardAlpha"/>
<feOffset dy="4"/>
<feGaussianBlur stdDeviation="2"/>
<feColorMatrix type="matrix" values="0 0 0 0 0.129412 0 0 0 0 0.129412 0 0 0 0 0.129412 0 0 0 0.2 0"/>
<feBlend mode="normal" in2="BackgroundImageFix" result="effect1_dropShadow_144_2"/>
<feBlend mode="normal" in="SourceGraphic" in2="effect1_dropShadow_144_2" result="shape"/>
</filter>
<filter id="filter2_ii_144_2" x="20.5696" y="18.5" width="130.9" height="135.1" filterUnits="userSpaceOnUse" color-interpolation-filters="sRGB">
<feFlood flood-opacity="0" result="BackgroundImageFix"/>
<feBlend mode="normal" in="SourceGraphic" in2="BackgroundImageFix" result="shape"/>
<feColorMatrix in="SourceAlpha" type="matrix" values="0 0 0 0 0 0 0 0 0 0 0 0 0 0 0 0 0 0 127 0" result="hardAlpha"/>
<feOffset dy="-1"/>
<feComposite in2="hardAlpha" operator="arithmetic" k2="-1" k3="1"/>
<feColorMatrix type="matrix" values="0 0 0 0 0.74902 0 0 0 0 0.211765 0 0 0 0 0.0470588 0 0 0 0.2 0"/>
<feBlend mode="normal" in2="shape" result="effect1_innerShadow_144_2"/>
<feColorMatrix in="SourceAlpha" type="matrix" values="0 0 0 0 0 0 0 0 0 0 0 0 0 0 0 0 0 0 127 0" result="hardAlpha"/>
<feOffset dy="1"/>
<feComposite in2="hardAlpha" operator="arithmetic" k2="-1" k3="1"/>
<feColorMatrix type="matrix" values="0 0 0 0 1 0 0 0 0 1 0 0 0 0 1 0 0 0 0.2 0"/>
<feBlend mode="normal" in2="effect1_innerShadow_144_2" result="effect2_innerShadow_144_2"/>
</filter>
<radialGradient id="paint0_radial_144_2" cx="0" cy="0" r="1" gradientUnits="userSpaceOnUse" gradientTransform="translate(4.50001 4.50001) rotate(45) scale(236.952 237.317)">
<stop stop-color="white"/>
<stop offset="1" stop-color="white" stop-opacity="0"/>
</radialGradient>
<clipPath id="clip0_144_2">
<rect width="172" height="172" fill="white"/>
</clipPath>
</defs>
</svg>
